<svg xmlns="http://www.w3.org/2000/svg" viewBox="0 0 1433.19 310"><defs><style>.cls-1{fill:#25d366;}</style></defs><g id="Layer_2" data-name="Layer 2"><g id="Layer_1-2" data-name="Layer 1"><path d="M50,280.4,10,108.8q15.6-6.39,28.2-6.4t18.4,5.4q5.79,5.4,7.8,16.6L79.6,198q8,39.21,11.6,64.4c.53,2.14,1.6,3.2,3.2,3.2L122,107.2q12.39-2.4,31.2-2.4t30.4,2.4l27.6,155.2c.26,2.14,1.33,3.2,3.2,3.2q7.2-41.6,12.4-67.6l20-92q8.4-2.4,23.8-2.4t24.2,4.4l1.6,3.2-48,193.2q-13.2,2-34.2,2t-28.6-4.8q-7.6-4.8-10-20.4L166.8,232q-8-46-12.8-79.2h-2.4q-2.81,20.8-13.2,78.8l-13.6,72.8a253.16,253.16,0,0,1-34.8,2q-20.81,0-28.6-5.2T50,280.4Z"/><path class="cls-1" d="M40,270.4,0,98.8q15.6-6.39,28.2-6.4t18.4,5.4q5.79,5.4,7.8,16.6L69.6,188q8,39.21,11.6,64.4c.53,2.14,1.6,3.2,3.2,3.2L112,97.2q12.39-2.4,31.2-2.4t30.4,2.4l27.6,155.2c.26,2.14,1.33,3.2,3.2,3.2Q211.6,214,216.8,188l20-92q8.4-2.4,23.8-2.4T284.8,98l1.6,3.2-48,193.2q-13.2,2-34.2,2t-28.6-4.8q-7.6-4.8-10-20.4L156.8,222q-8-46-12.8-79.2h-2.4q-2.81,20.8-13.2,78.8l-13.6,72.8a253.16,253.16,0,0,1-34.8,2q-20.81,0-28.6-5.2T40,270.4Z"/><path d="M500,170.8V258q0,25.61,8.4,38-12.81,11.21-30.8,11.2-17.21,0-23.6-7.8t-6.4-24.6V181.6q0-18-4.4-25.2t-16.4-7.2q-21.21,0-39.6,19.2v136A93.14,93.14,0,0,1,375,306q-6.21.39-13,.4-6.4,0-12.8-.4a105.32,105.32,0,0,1-12.8-1.6V12.8l2.4-2.8h20.4q15.6,0,21.8,7.2t6.2,25.2v84.4q28-24.39,56.4-24.4,28.8,0,42.6,18.6T500,170.8Z"/><path class="cls-1" d="M490,160.8V248q0,25.61,8.4,38-12.81,11.21-30.8,11.2-17.21,0-23.6-7.8t-6.4-24.6V171.6q0-18-4.4-25.2t-16.4-7.2q-21.21,0-39.6,19.2v136A93.14,93.14,0,0,1,365,296q-6.21.39-13,.4-6.4,0-12.8-.4a105.32,105.32,0,0,1-12.8-1.6V2.8L328.8,0h20.4Q364.8,0,371,7.2t6.2,25.2v84.4q28-24.39,56.4-24.4,28.8,0,42.6,18.6T490,160.8Z"/><path d="M723.2,280.4a55.93,55.93,0,0,1-7.2,15.2,48.17,48.17,0,0,1-10.4,12q-26-3.21-38-22.8-26,25.2-56.8,25.2-15.6,0-27.4-5a56.17,56.17,0,0,1-19.6-13.4,54.47,54.47,0,0,1-11.6-19.2,66.8,66.8,0,0,1-3.8-22.4q0-16.8,5.8-29.4a56.43,56.43,0,0,1,16.4-21,75.45,75.45,0,0,1,24.8-12.8,104.38,104.38,0,0,1,31-4.4q21.6,0,33.6,1.2V172.8q0-30.39-29.6-30.4-20,0-60.8,14Q558.4,144,556,119.2a222,222,0,0,1,87.6-18q30,0,49.2,16.8T712,168.8v82Q712,272,723.2,280.4Zm-100.8-10q20,0,37.6-17.6V218q-6.4-.39-12.4-.8c-4-.26-7.87-.4-11.6-.4q-17.61,0-26.8,6.6T600,245.2q0,12,6,18.6T622.4,270.4Z"/><path class="cls-1" d="M713.2,270.4a55.93,55.93,0,0,1-7.2,15.2,48.17,48.17,0,0,1-10.4,12q-26-3.21-38-22.8-26,25.2-56.8,25.2-15.6,0-27.4-5a56.17,56.17,0,0,1-19.6-13.4,54.47,54.47,0,0,1-11.6-19.2,66.8,66.8,0,0,1-3.8-22.4q0-16.8,5.8-29.4a56.43,56.43,0,0,1,16.4-21,75.45,75.45,0,0,1,24.8-12.8,104.38,104.38,0,0,1,31-4.4q21.6,0,33.6,1.2V162.8q0-30.39-29.6-30.4-20,0-60.8,14Q548.4,134,546,109.2a222,222,0,0,1,87.6-18q30,0,49.2,16.8T702,158.8v82Q702,262,713.2,270.4Zm-100.8-10q20,0,37.6-17.6V208q-6.4-.39-12.4-.8c-4-.26-7.87-.4-11.6-.4q-17.61,0-26.8,6.6T590,235.2q0,12,6,18.6T612.4,260.4Z"/><path d="M877.2,105.6a74.83,74.83,0,0,1,0,37.6l-48.4-.8V247.6Q828.8,266,846,266h24.8a72.32,72.32,0,0,1,4,22.8q0,10.8-1.2,14a328.64,328.64,0,0,1-48,3.6q-48,0-48-48.8V142.8l-30.4.4a77.79,77.79,0,0,1-2-18.8,77.84,77.84,0,0,1,2-18.8l30.4.4V77.2q0-17.6,6.4-24.8t22-7.2h20l2.8,2.4v58.8Z"/><path class="cls-1" d="M867.2,95.6a74.83,74.83,0,0,1,0,37.6l-48.4-.8V237.6Q818.8,256,836,256h24.8a72.32,72.32,0,0,1,4,22.8q0,10.8-1.2,14a328.64,328.64,0,0,1-48,3.6q-48,0-48-48.8V132.8l-30.4.4a77.79,77.79,0,0,1-2-18.8,77.84,77.84,0,0,1,2-18.8l30.4.4V67.2q0-17.6,6.4-24.8t22-7.2h20l2.8,2.4V96.4Z"/><path d="M905.59,290.4q.4-8.79,5-19.4t10.6-16.6q31.6,17.21,55.6,17.2,13.2,0,21.4-5.2t8.2-14q0-14-21.6-22.4l-22.4-8.4Q912,203.21,912,162.8a59.55,59.55,0,0,1,5.39-25.8,57.44,57.44,0,0,1,15.2-19.6A69.51,69.51,0,0,1,956,104.8a98.46,98.46,0,0,1,30.39-4.4,135.28,135.28,0,0,1,17,1.2q9.4,1.2,19,3.4t18.4,5a107.22,107.22,0,0,1,15.21,6,59.93,59.93,0,0,1-4,20.8q-4,10.8-10.81,16-31.59-14-54.8-14-10.39,0-16.39,5a16.14,16.14,0,0,0-6,13q0,12.4,20,19.6l24.39,8.8q26.42,9.21,39.2,25.2a57.79,57.79,0,0,1,12.8,37.2q0,28.41-21.2,45.4t-60.8,17A143.39,143.39,0,0,1,905.59,290.4Z"/><path class="cls-1" d="M895.59,280.4q.4-8.79,5-19.4t10.6-16.6q31.6,17.21,55.6,17.2,13.2,0,21.4-5.2t8.2-14q0-14-21.6-22.4l-22.4-8.4Q902,193.21,902,152.8a59.55,59.55,0,0,1,5.39-25.8,57.44,57.44,0,0,1,15.2-19.6A69.51,69.51,0,0,1,946,94.8a98.46,98.46,0,0,1,30.39-4.4,135.28,135.28,0,0,1,17,1.2q9.4,1.2,19,3.4t18.4,5a107.22,107.22,0,0,1,15.21,6,59.93,59.93,0,0,1-4,20.8q-4,10.8-10.81,16-31.59-14-54.8-14-10.39,0-16.39,5a16.14,16.14,0,0,0-6,13q0,12.4,20,19.6l24.39,8.8q26.42,9.21,39.2,25.2a57.79,57.79,0,0,1,12.8,37.2q0,28.41-21.2,45.4t-60.8,17A143.39,143.39,0,0,1,895.59,280.4Z"/><path d="M1214.39,105.6a74.83,74.83,0,0,1,0,37.6l-48.4-.8V247.6q0,18.41,17.2,18.4H1208a72.32,72.32,0,0,1,4,22.8q0,10.8-1.2,14a328.64,328.64,0,0,1-48,3.6q-48,0-48-48.8V142.8l-30.4.4a77.79,77.79,0,0,1-2-18.8,77.84,77.84,0,0,1,2-18.8l30.4.4V77.2q0-17.6,6.4-24.8t22-7.2h20l2.8,2.4v58.8Z"/><path class="cls-1" d="M1204.39,95.6a74.83,74.83,0,0,1,0,37.6l-48.4-.8V237.6q0,18.41,17.2,18.4H1198a72.32,72.32,0,0,1,4,22.8q0,10.8-1.2,14a328.64,328.64,0,0,1-48,3.6q-48,0-48-48.8V132.8l-30.4.4a77.79,77.79,0,0,1-2-18.8,77.84,77.84,0,0,1,2-18.8l30.4.4V67.2q0-17.6,6.4-24.8t22-7.2h20l2.8,2.4V96.4Z"/><path d="M1402.39,227.28l11.6,31.17q8.79,25.19,19.2,32.77-14,16-35.2,16-12,0-18-5.77t-11.2-19.71l-13.6-36.63q-5.2-13.53-11.4-18.31a23.21,23.21,0,0,0-14.6-4.78q-8.4,0-18,.8v81.6a162.29,162.29,0,0,1-50.8,0V12.8l2.4-2.8h20.4q15.6,0,21.8,7.4t6.2,25V178.8l10-.4q6.8,0,10.4-6.4l27.6-47.6q10.8-20,31.2-20,9.6,0,28.8.8l2.4,3.21-37.2,64.08a52.79,52.79,0,0,1-16.8,19.63Q1392,200.11,1402.39,227.28Z"/><path class="cls-1" d="M1392.39,217.28l11.6,31.17q8.79,25.19,19.2,32.77-14,16-35.2,16-12,0-18-5.77t-11.2-19.71l-13.6-36.63q-5.2-13.53-11.4-18.31a23.21,23.21,0,0,0-14.6-4.78q-8.4,0-18,.8v81.6a162.29,162.29,0,0,1-50.8,0V2.8l2.4-2.8h20.4q15.6,0,21.8,7.4t6.2,25V168.8l10-.4q6.8,0,10.4-6.4l27.6-47.6q10.8-20,31.2-20,9.6,0,28.8.8l2.4,3.21-37.2,64.08a52.79,52.79,0,0,1-16.8,19.63Q1382,190.11,1392.39,217.28Z"/></g></g></svg>